<?xml version="1.0" standalone="no"?>
<!DOCTYPE svg PUBLIC "-//W3C//DTD SVG 20010904//EN"
 "http://www.w3.org/TR/2001/REC-SVG-20010904/DTD/svg10.dtd">
<svg version="1.0" xmlns="http://www.w3.org/2000/svg"
 width="100.000000pt" height="100.000000pt" viewBox="0 0 100.000000 100.000000"
 preserveAspectRatio="xMidYMid meet">
<metadata>
Created by potrace 1.11, written by Peter Selinger 2001-2013
</metadata>
<g transform="translate(0.000000,100.000000) scale(0.100000,-0.100000)"
fill="#000000" stroke="none">
<path d="M415 983 c-196 -44 -343 -182 -389 -367 -42 -167 5 -335 130 -459
196 -196 493 -195 689 0 68 68 105 133 129 228 67 253 -97 521 -359 590 -56
14 -155 18 -200 8z m168 -242 c6 -6 18 -11 27 -11 8 0 32 -16 53 -35 21 -19
35 -35 32 -35 -3 0 3 -9 14 -21 27 -29 45 -111 38 -172 -6 -47 -61 -157 -78
-157 -4 0 -15 -7 -24 -16 -26 -26 -106 -51 -160 -49 -54 2 -135 31 -135 48 0
6 -3 8 -6 4 -14 -13 -90 89 -97 129 -1 10 -5 24 -8 29 -6 11 -3 78 4 112 18
76 92 153 172 180 38 13 153 9 168 -6z"/>
</g>
</svg>
