<?xml version="1.0" standalone="no"?>
<!DOCTYPE svg PUBLIC "-//W3C//DTD SVG 20010904//EN"
 "http://www.w3.org/TR/2001/REC-SVG-20010904/DTD/svg10.dtd">
<svg version="1.0" xmlns="http://www.w3.org/2000/svg"
 width="700.000000pt" height="700.000000pt" viewBox="0 0 700.000000 700.000000"
 preserveAspectRatio="xMidYMid meet">
<metadata>
Created by potrace 1.11, written by Peter Selinger 2001-2013
</metadata>
<g transform="translate(0.000000,700.000000) scale(0.100000,-0.100000)"
fill="#000000" stroke="none">
<path d="M3377 6944 c-1 -1 -54 -5 -117 -8 -115 -7 -136 -9 -207 -20 -21 -3
-58 -8 -83 -11 -36 -5 -152 -27 -313 -60 -98 -21 -427 -132 -537 -182 -259
-119 -395 -195 -595 -331 -77 -52 -145 -100 -151 -106 -7 -6 -58 -49 -114 -96
-128 -106 -311 -287 -410 -405 -41 -50 -77 -92 -80 -95 -11 -10 -138 -187
-177 -245 -174 -262 -332 -599 -422 -905 -17 -58 -33 -114 -36 -125 -2 -11
-15 -69 -29 -130 -23 -104 -32 -150 -41 -220 -3 -16 -7 -46 -10 -65 -2 -19 -7
-66 -11 -105 -3 -38 -8 -88 -10 -110 -4 -50 -4 -409 0 -450 2 -16 6 -66 10
-110 6 -69 33 -251 51 -350 4 -16 20 -84 36 -150 115 -455 329 -894 619 -1266
185 -239 428 -478 655 -645 44 -32 82 -61 85 -64 23 -25 303 -192 428 -256
162 -83 489 -213 600 -239 9 -3 60 -16 112 -30 134 -35 363 -77 490 -90 234
-24 576 -24 755 0 17 2 53 7 80 10 524 60 1103 287 1558 610 483 342 867 796
1120 1325 137 286 242 608 286 880 6 36 13 76 15 90 24 138 31 250 31 520 0
146 -4 292 -8 325 -4 33 -10 80 -13 105 -5 40 -25 163 -39 245 -16 87 -90 349
-131 462 -78 215 -161 390 -305 640 -40 70 -183 272 -260 368 -405 501 -956
887 -1569 1100 -58 20 -115 38 -127 41 -12 2 -34 9 -48 14 -75 28 -363 88
-514 105 -30 4 -61 8 -70 10 -55 10 -494 27 -504 19z m346 -1653 c262 -35 475
-105 689 -227 279 -158 538 -415 684 -680 13 -24 34 -63 47 -86 20 -37 81
-183 107 -258 17 -47 50 -195 60 -270 6 -41 13 -88 15 -105 7 -44 6 -283 0
-335 -6 -46 -31 -198 -39 -235 -2 -11 -12 -47 -22 -80 -10 -33 -19 -64 -20
-70 -10 -50 -102 -251 -156 -345 -24 -40 -91 -143 -98 -150 -3 -3 -21 -25 -40
-50 -177 -231 -437 -432 -712 -550 -80 -35 -268 -101 -268 -95 0 3 -10 1 -23
-4 -13 -5 -40 -12 -60 -15 -20 -3 -56 -10 -79 -15 -104 -23 -323 -31 -477 -17
-556 50 -1055 347 -1363 812 -150 225 -237 453 -286 749 -16 93 -8 434 12 540
71 382 242 705 514 973 47 46 110 102 141 125 31 23 58 45 61 48 13 18 197
126 285 169 162 79 342 137 485 156 25 3 48 8 51 10 3 1 46 6 95 10 49 3 90 7
92 9 6 5 240 -6 305 -14z"/>
</g>
</svg>
